<svg width="159" height="26" viewBox="0 0 159 26" fill="none" xmlns="http://www.w3.org/2000/svg">
<path d="M5.0486 0.00155586C5.11861 0.00155586 5.18784 0.00155586 5.25785 0.00155586C7.55892 0.00155586 9.85998 3.56447e-08 12.161 0.00155586C13.3116 0.00311168 14.4434 0.159472 15.5636 0.420072C16.627 0.667448 17.6453 1.03696 18.6068 1.54727C19.8873 2.22716 21.0043 3.11787 21.9246 4.24351C22.7826 5.29369 23.4252 6.46289 23.8686 7.74489C24.2358 8.80518 24.4583 9.89348 24.5827 11.0082C24.7049 12.0996 24.7111 13.1918 24.6224 14.2809C24.5361 15.3358 24.3455 16.3766 24.0304 17.3941C23.6002 18.7842 22.96 20.0631 22.0615 21.2074C21.342 22.123 20.487 22.8978 19.5108 23.5342C18.3587 24.2864 17.1078 24.82 15.7729 25.1437C15.1459 25.2954 14.5072 25.4198 13.8662 25.4859C13.0759 25.5676 12.2785 25.6057 11.4843 25.612C9.37767 25.6283 7.27109 25.6174 5.1645 25.6174H4.93502C4.92802 25.6034 4.9218 25.5902 4.91479 25.5762C5.05793 25.4541 5.19873 25.3272 5.34576 25.2098C6.52352 24.2638 7.70205 23.3179 8.88214 22.3743C10.2139 21.3093 11.5473 20.2475 12.8791 19.1817C13.9627 18.3144 15.0432 17.4431 16.1268 16.575C17.4571 15.5092 18.7888 14.445 20.1199 13.3793C20.2863 13.2463 20.4489 13.1094 20.6162 12.9771C20.7982 12.8332 20.8029 12.6823 20.6177 12.5337C19.9635 12.0086 19.3062 11.4859 18.6512 10.9616C17.5162 10.0537 16.382 9.14513 15.2486 8.23575C14.0949 7.31081 12.9428 6.38354 11.7884 5.45938C10.6387 4.53911 9.48736 3.62118 8.33683 2.70169C7.27887 1.85454 6.22169 1.00662 5.1645 0.157916C5.12016 0.12291 5.07893 0.0840143 5.03615 0.0466746C5.04082 0.0311163 5.04626 0.0155582 5.05093 0L5.0486 0.00155586Z" fill="#302CB7"/>
<path d="M0 3.63745C0.213926 3.80548 0.40607 3.95406 0.595102 4.10575C2.08014 5.29751 3.56361 6.49239 5.05098 7.68181C6.38199 8.74677 7.71844 9.80551 9.05022 10.8689C9.73634 11.4166 10.4193 11.9689 11.1024 12.5212C11.3225 12.6993 11.3202 12.8215 11.1008 12.9965C9.03078 14.6566 6.96075 16.3159 4.89151 17.9759C3.49127 19.0992 2.09258 20.2233 0.692341 21.3466C0.471414 21.524 0.24582 21.6951 0 21.8865V3.63745Z" fill="#302CB7"/>
<path d="M42.4089 23.0056H33.8678V18.9167H42.4089C43.8022 18.9167 44.9127 18.7552 45.7406 18.4321C46.5886 18.0889 47.2045 17.4831 47.5881 16.6149C47.992 15.7264 48.1939 14.4745 48.1939 12.8592C48.1939 11.2237 47.992 9.97176 47.5881 9.10351C47.2045 8.23526 46.5886 7.6396 45.7406 7.31653C44.9127 6.97327 43.8022 6.80164 42.4089 6.80164H33.8678V2.71279H42.4089C44.5896 2.71279 46.4675 3.11663 48.0425 3.9243C49.6376 4.73197 50.8693 5.893 51.7376 7.40739C52.6058 8.92178 53.0399 10.739 53.0399 12.8592C53.0399 14.9793 52.6058 16.7966 51.7376 18.311C50.8693 19.8254 49.6376 20.9864 48.0425 21.7941C46.4675 22.6018 44.5896 23.0056 42.4089 23.0056ZM37.1691 23.0056H32.626V2.71279H37.1691V23.0056Z" fill="black"/>
<path d="M59.5539 23.0056H55.0108V2.71279H66.2172C67.8932 2.71279 69.3167 2.95509 70.4878 3.4397C71.6589 3.90411 72.5474 4.59063 73.1531 5.49926C73.7589 6.4079 74.0618 7.50835 74.0618 8.80063C74.0618 9.91118 73.8498 10.8602 73.4257 11.6477C73.0017 12.4352 72.3657 13.0712 71.5176 13.5558C70.6695 14.0202 69.6095 14.313 68.3374 14.4342V14.6765C69.246 14.9188 69.9224 15.2822 70.3667 15.7668C70.8109 16.2514 71.2248 16.8471 71.6085 17.5538L74.5464 23.0056H69.2763L66.4898 17.7355C66.2071 17.2105 65.9144 16.7966 65.6115 16.4937C65.3086 16.1908 64.9149 15.9788 64.4303 15.8577C63.9659 15.7163 63.3399 15.6457 62.5524 15.6457H59.5539V23.0056ZM59.5539 6.80164V12.2231H66.187C67.2571 12.2231 68.0446 12.0414 68.5494 11.678C69.0542 11.2943 69.3066 10.5674 69.3066 9.49725C69.3066 8.48766 69.0542 7.79104 68.5494 7.40739C68.0446 7.00356 67.2571 6.80164 66.187 6.80164H59.5539Z" fill="black"/>
<path d="M86.4308 23.3085C84.2097 23.3085 82.2713 22.8844 80.6155 22.0364C78.98 21.1681 77.718 19.9566 76.8296 18.4019C75.9613 16.8269 75.5272 14.9793 75.5272 12.8592C75.5272 10.739 75.9613 8.90159 76.8296 7.34682C77.718 5.77185 78.98 4.56034 80.6155 3.71229C82.2713 2.84404 84.2097 2.40991 86.4308 2.40991C88.7326 2.40991 90.7014 2.84404 92.3369 3.71229C93.9724 4.56034 95.2344 5.77185 96.1229 7.34682C97.0113 8.90159 97.4555 10.739 97.4555 12.8592C97.4555 14.9793 97.0113 16.8269 96.1229 18.4019C95.2344 19.9566 93.9724 21.1681 92.3369 22.0364C90.7014 22.8844 88.7326 23.3085 86.4308 23.3085ZM86.4308 18.947C87.925 18.947 89.1163 18.7552 90.0047 18.3716C90.9134 17.9677 91.5696 17.3216 91.9734 16.4331C92.3975 15.5447 92.6095 14.3534 92.6095 12.8592C92.6095 11.3448 92.3975 10.1535 91.9734 9.28524C91.5696 8.39679 90.9134 7.76075 90.0047 7.37711C89.1163 6.97327 87.925 6.77135 86.4308 6.77135C84.9568 6.77135 83.7756 6.97327 82.8871 7.37711C81.9987 7.76075 81.3525 8.39679 80.9487 9.28524C80.5449 10.1535 80.3429 11.3448 80.3429 12.8592C80.3429 14.3534 80.5449 15.5447 80.9487 16.4331C81.3525 17.3216 81.9987 17.9677 82.8871 18.3716C83.7756 18.7552 84.9568 18.947 86.4308 18.947Z" fill="black"/>
<path d="M110.037 17.4024H101.012V13.3135H109.553C110.825 13.3135 111.754 13.0914 112.339 12.6472C112.945 12.1828 113.248 11.3145 113.248 10.0424C113.248 8.81073 112.945 7.96267 112.339 7.49826C111.754 7.03384 110.825 6.80164 109.553 6.80164H101.012V2.71279H110.037C111.612 2.71279 112.975 3.00557 114.126 3.59113C115.277 4.15651 116.166 4.98437 116.792 6.07473C117.438 7.16509 117.761 8.48766 117.761 10.0424C117.761 11.5972 117.438 12.9299 116.792 14.0404C116.166 15.1308 115.277 15.9687 114.126 16.5543C112.975 17.1197 111.612 17.4024 110.037 17.4024ZM103.98 23.0056H99.4368V2.71279H103.98V23.0056Z" fill="black"/>
<path d="M123.915 23.0056H119.372V2.71279H123.915V23.0056ZM136 23.0056H120.644V18.9167H136V23.0056Z" fill="black"/>
<path d="M149.762 16.4331H145.371L136.284 2.71279H141.887L145.764 8.64919L147.46 11.3751H147.794L149.49 8.64919L153.367 2.71279H159L149.762 16.4331ZM149.853 23.0056H145.28V13.7072H149.853V23.0056Z" fill="black"/>
</svg>
