<svg width="159" height="26" viewBox="0 0 159 26" fill="none" xmlns="http://www.w3.org/2000/svg">
<path d="M5.0486 0.00155586C5.11861 0.00155586 5.18784 0.00155586 5.25785 0.00155586C7.55892 0.00155586 9.85998 3.56447e-08 12.161 0.00155586C13.3116 0.00311168 14.4434 0.159472 15.5636 0.420072C16.627 0.667448 17.6453 1.03696 18.6068 1.54727C19.8873 2.22716 21.0043 3.11787 21.9246 4.24351C22.7826 5.29369 23.4252 6.46289 23.8686 7.74489C24.2358 8.80518 24.4583 9.89348 24.5827 11.0082C24.7049 12.0996 24.7111 13.1918 24.6224 14.2809C24.5361 15.3358 24.3455 16.3766 24.0304 17.3941C23.6002 18.7842 22.96 20.0631 22.0615 21.2074C21.342 22.123 20.487 22.8978 19.5108 23.5342C18.3587 24.2864 17.1078 24.82 15.7729 25.1437C15.1459 25.2954 14.5072 25.4198 13.8662 25.4859C13.0759 25.5676 12.2785 25.6057 11.4843 25.612C9.37767 25.6283 7.27109 25.6174 5.1645 25.6174H4.93502C4.92802 25.6034 4.9218 25.5902 4.91479 25.5762C5.05793 25.4541 5.19873 25.3272 5.34576 25.2098C6.52352 24.2638 7.70205 23.3179 8.88214 22.3743C10.2139 21.3093 11.5473 20.2475 12.8791 19.1817C13.9627 18.3144 15.0432 17.4431 16.1268 16.575C17.4571 15.5092 18.7888 14.445 20.1199 13.3793C20.2863 13.2463 20.4489 13.1094 20.6162 12.9771C20.7982 12.8332 20.8029 12.6823 20.6177 12.5337C19.9635 12.0086 19.3062 11.4859 18.6512 10.9616C17.5162 10.0537 16.382 9.14513 15.2486 8.23575C14.0949 7.31081 12.9428 6.38354 11.7884 5.45938C10.6387 4.53911 9.48736 3.62118 8.33683 2.70169C7.27887 1.85454 6.22169 1.00662 5.1645 0.157916C5.12016 0.12291 5.07893 0.0840143 5.03615 0.0466746C5.04082 0.0311163 5.04626 0.0155582 5.05093 0L5.0486 0.00155586Z" fill="white"/>
<path d="M0 3.6377C0.213926 3.80572 0.40607 3.95431 0.595102 4.106C2.08014 5.29776 3.56361 6.49263 5.05098 7.68206C6.38199 8.74702 7.71844 9.80576 9.05022 10.8692C9.73634 11.4168 10.4193 11.9691 11.1024 12.5214C11.3225 12.6996 11.3202 12.8217 11.1008 12.9967C9.03078 14.6568 6.96075 16.3161 4.89151 17.9762C3.49127 19.0995 2.09258 20.2235 0.692341 21.3469C0.471414 21.5242 0.24582 21.6954 0 21.8867V3.6377Z" fill="white"/>
<path d="M42.4089 23.0058H33.8678V18.917H42.4089C43.8022 18.917 44.9127 18.7555 45.7406 18.4324C46.5886 18.0891 47.2045 17.4834 47.5881 16.6151C47.992 15.7267 48.1939 14.4748 48.1939 12.8594C48.1939 11.2239 47.992 9.972 47.5881 9.10375C47.2045 8.2355 46.5886 7.63984 45.7406 7.31677C44.9127 6.97351 43.8022 6.80188 42.4089 6.80188H33.8678V2.71303H42.4089C44.5896 2.71303 46.4675 3.11687 48.0425 3.92454C49.6376 4.73222 50.8693 5.89325 51.7376 7.40764C52.6058 8.92203 53.0399 10.7393 53.0399 12.8594C53.0399 14.9796 52.6058 16.7968 51.7376 18.3112C50.8693 19.8256 49.6376 20.9867 48.0425 21.7943C46.4675 22.602 44.5896 23.0058 42.4089 23.0058ZM37.1691 23.0058H32.626V2.71303H37.1691V23.0058Z" fill="white"/>
<path d="M59.5539 23.0058H55.0108V2.71303H66.2172C67.8932 2.71303 69.3167 2.95534 70.4878 3.43994C71.6589 3.90435 72.5474 4.59088 73.1531 5.49951C73.7589 6.40814 74.0618 7.5086 74.0618 8.80088C74.0618 9.91143 73.8498 10.8604 73.4257 11.6479C73.0017 12.4354 72.3657 13.0715 71.5176 13.5561C70.6695 14.0205 69.6095 14.3132 68.3374 14.4344V14.6767C69.246 14.919 69.9224 15.2825 70.3667 15.7671C70.8109 16.2517 71.2248 16.8473 71.6085 17.554L74.5464 23.0058H69.2763L66.4898 17.7358C66.2071 17.2108 65.9144 16.7968 65.6115 16.494C65.3086 16.1911 64.9149 15.9791 64.4303 15.8579C63.9659 15.7166 63.3399 15.6459 62.5524 15.6459H59.5539V23.0058ZM59.5539 6.80188V12.2234H66.187C67.2571 12.2234 68.0446 12.0417 68.5494 11.6782C69.0542 11.2946 69.3066 10.5677 69.3066 9.49749C69.3066 8.4879 69.0542 7.79128 68.5494 7.40764C68.0446 7.0038 67.2571 6.80188 66.187 6.80188H59.5539Z" fill="white"/>
<path d="M86.4308 23.3087C84.2097 23.3087 82.2713 22.8847 80.6155 22.0366C78.98 21.1684 77.718 19.9569 76.8296 18.4021C75.9613 16.8271 75.5272 14.9796 75.5272 12.8594C75.5272 10.7393 75.9613 8.90183 76.8296 7.34706C77.718 5.7721 78.98 4.56059 80.6155 3.71253C82.2713 2.84428 84.2097 2.41016 86.4308 2.41016C88.7326 2.41016 90.7014 2.84428 92.3369 3.71253C93.9724 4.56059 95.2344 5.7721 96.1229 7.34706C97.0113 8.90183 97.4555 10.7393 97.4555 12.8594C97.4555 14.9796 97.0113 16.8271 96.1229 18.4021C95.2344 19.9569 93.9724 21.1684 92.3369 22.0366C90.7014 22.8847 88.7326 23.3087 86.4308 23.3087ZM86.4308 18.9473C87.925 18.9473 89.1163 18.7555 90.0047 18.3718C90.9134 17.968 91.5696 17.3218 91.9734 16.4334C92.3975 15.545 92.6095 14.3536 92.6095 12.8594C92.6095 11.345 92.3975 10.1537 91.9734 9.28548C91.5696 8.39704 90.9134 7.761 90.0047 7.37735C89.1163 6.97351 87.925 6.77159 86.4308 6.77159C84.9568 6.77159 83.7756 6.97351 82.8871 7.37735C81.9987 7.761 81.3525 8.39704 80.9487 9.28548C80.5449 10.1537 80.3429 11.345 80.3429 12.8594C80.3429 14.3536 80.5449 15.545 80.9487 16.4334C81.3525 17.3218 81.9987 17.968 82.8871 18.3718C83.7756 18.7555 84.9568 18.9473 86.4308 18.9473Z" fill="white"/>
<path d="M110.037 17.4026H101.012V13.3138H109.553C110.825 13.3138 111.754 13.0916 112.339 12.6474C112.945 12.183 113.248 11.3148 113.248 10.0427C113.248 8.81097 112.945 7.96291 112.339 7.4985C111.754 7.03409 110.825 6.80188 109.553 6.80188H101.012V2.71303H110.037C111.612 2.71303 112.975 3.00582 114.126 3.59138C115.277 4.15675 116.166 4.98462 116.792 6.07498C117.438 7.16534 117.761 8.4879 117.761 10.0427C117.761 11.5974 117.438 12.9301 116.792 14.0407C116.166 15.131 115.277 15.969 114.126 16.5545C112.975 17.1199 111.612 17.4026 110.037 17.4026ZM103.98 23.0058H99.4368V2.71303H103.98V23.0058Z" fill="white"/>
<path d="M123.915 23.0058H119.372V2.71303H123.915V23.0058ZM136 23.0058H120.644V18.917H136V23.0058Z" fill="white"/>
<path d="M149.762 16.4334H145.371L136.284 2.71303H141.887L145.764 8.64944L147.46 11.3753H147.794L149.49 8.64944L153.367 2.71303H159L149.762 16.4334ZM149.853 23.0058H145.28V13.7075H149.853V23.0058Z" fill="white"/>
</svg>
