<svg width="108" height="108" viewBox="0 0 108 108" fill="none" xmlns="http://www.w3.org/2000/svg">
<g id="uwaqUC.tif">
<g id="Group">
<path id="Vector" d="M48.0919 44.3263H51.8052V40.7286H55.5333V37.0246H59.236V33.4077H44.4339V22.1791H48.2067V29.536H55.5206V25.9935H51.8689V22.1642H55.5269V18.5728H59.3614V22.1069H62.9578V11.2308H59.2891V7.53533H55.6864V14.9177H51.9583V18.6047H44.4062V14.9602H40.9099V25.934H37.0754V14.9496H29.6552V11.1395H33.3068V7.52258H29.6658V3.69545H33.3281V0.0106192H37.1626V7.37179H40.7653V3.7082H51.8052V0.00849529H55.6397V3.64448H59.2615V0H63.0769V11.08H66.5923V7.41852H74.0125V3.81863H70.3609V0.00212387H77.8279V7.49285H74.1784V11.0906H77.8619V29.5615H81.5709V33.257H85.1736V29.6125H88.9018V33.2485H92.5236V29.604H96.3198V33.3865H92.6682V40.6967H96.3369V44.2796H99.9587V40.7456H103.757V44.4176H100.097V48.1216H92.6746V51.7385H100.061V55.4424H103.755V59.2717H100.11V70.1902H103.787V73.9133H107.477V81.455H100.093V85.159H92.6725V92.3481H96.239V88.7079H100.054V92.3566H103.676V88.7185H107.485V96.1986H103.819V103.615H100.11V107.315H96.2752V103.681H92.6534V107.323H81.5071V103.672H74.1656V107.315H70.3588V103.562H74.0083V99.9556H59.4061V103.628H55.6779V107.313H48.1259V103.653H44.4169V96.2432H40.9014V107.315H29.6573V88.7036H37.052V73.9473H40.744V70.3559H33.4684V85.1377H29.6339V77.7617H14.8701V70.3538H11.2674V74.0004H7.43294V66.6498H3.81112V77.7213H0.0170194V62.9013H11.1079V51.8765H7.44571V48.0834H14.9446V55.4382H18.5473V51.7894H29.702V59.2674H26.0185V62.9756H22.2031V59.3205H18.7068V62.9884H14.9892V66.4629H29.6127V62.914H37.0222V55.5847H33.3557V40.8666H29.753V48.1067H18.5877V37.1457H11.2653V44.4028H7.43082V40.8709H3.81112V44.4113H0.0148926V29.6146H18.6685V33.2591H22.1648V29.6252H40.8525V33.3844H37.2094V40.6882H40.7674V37.048H48.1876V40.8178H44.5381V48.0133H48.0919V44.3327V44.3263ZM85.3012 40.839H81.5752V44.3985H77.7428V40.8475H74.1423V44.39H70.3482V40.7073H74.0019V37.1308H63.1279V44.3369H66.7199V48.0366H77.8832V51.7024H81.5029V48.0154H85.2289V44.2945H88.7742V37.1457H85.3012V40.8326V40.839ZM70.3418 66.5118V55.453H74.0104V51.8383H66.5923V48.1747H63.1343V59.1888H66.6774V62.9586H62.9769V59.3141H55.695V66.5097H59.3827V70.1733H63.0024V66.5097H70.3397L70.3418 66.5118ZM40.9014 85.0761H44.5253V88.6463H51.8456V85.0421H55.5716V81.3403H59.2976V77.6194H62.9535V74.0046H59.2487V70.358H55.6482V77.7532H48.2025V81.4359H44.3871V77.7872H40.8993V85.0782L40.9014 85.0761ZM51.8158 55.5826V48.1683H48.2152V51.8171H44.3828V48.1747H40.8695V63.0096H37.203V66.4608H51.8094V62.9926H44.4339V55.4891H48.228V59.14H55.5291V55.5826H51.8179H51.8158ZM70.4183 25.9319H66.5796V22.2832H63.0832V25.9956H59.4104V29.5934H66.7221V33.257H74.004V18.6727H66.7433V22.1685H70.4183V25.9319ZM77.9108 55.5932V59.1973H81.6028V62.8482H92.5555V59.1612H99.9459V55.5635H92.513V51.8829H88.9103V59.2441H85.1821V55.5932H77.9087H77.9108ZM92.6342 66.6222H85.3331V73.8921H88.8337V70.2391H92.6491V77.5981H96.2709V73.9133H99.9289V70.2986H96.2369V63.0415H92.6342V66.6244V66.6222ZM70.3056 88.7928V81.4847H63.13V88.6909H66.6859V92.4989H63.1364V96.0754H70.329V92.3693H74.0168V88.7928H70.3056ZM88.7891 77.7829H77.9108V88.6463H88.7891V77.7829ZM55.5142 103.505V96.1965H51.8264V92.535H48.2471V103.505H55.5142ZM33.3196 33.429H22.3329V37.0161H26.0185V40.6797H29.6509V36.9843H33.3196V33.429ZM48.1025 11.0927H51.8052V7.53745H44.5381V14.7988H48.1004V11.0906L48.1025 11.0927ZM29.585 73.9048V70.3623H18.7089V73.9048H29.585ZM77.9044 92.518V96.0605H85.1694V92.518H77.9044ZM74.0146 14.8052V11.2478H66.7455V14.8052H74.0146ZM74.004 73.9027V66.6477H70.4566V73.9027H74.004ZM44.5253 73.8899H51.7903V70.3474H44.5253V73.8899ZM88.7869 99.9599H81.6284V103.505H88.7869V99.9599ZM77.7194 66.4799V59.312H74.1763V66.4799H77.7194ZM37.2051 44.4559V47.9984H40.7525V44.4559H37.2051ZM70.4651 77.7723V81.3148H74.0125V77.7723H70.4651ZM55.6864 22.2768V25.8278H59.2338V22.2768H55.6864ZM81.4518 70.1881V66.6371H77.9044V70.1881H81.4518ZM51.9795 66.6265V70.186H55.5227V66.6265H51.9795ZM29.7552 70.1754H33.3026V66.6328H29.7552V70.1754ZM40.7419 14.8031V11.2605H37.1966V14.8031H40.7419ZM25.8739 59.1527V55.6038H22.3286V59.1527H25.8739ZM40.7419 92.3651V88.8225H37.1945V92.3651H40.7419ZM62.962 88.8119H59.4082V92.3502H62.962V88.8119ZM33.4663 96.0627H37.0328V92.5265H33.4663V96.0627ZM7.54992 33.4184V36.9694H11.0973V33.4184H7.54992ZM59.2466 92.5223H55.6886V96.0648H59.2466V92.5223ZM59.2253 51.7385V48.1789H55.6971V51.7385H59.2253ZM92.5066 92.5307H88.9592V96.0733H92.5066V92.5307ZM81.4412 40.6903V37.1478H77.8938V40.6903H81.4412ZM96.3943 99.9429V103.502H99.9374V99.9429H96.3943ZM92.5066 44.4559H88.9486V48.0005H92.5066V44.4559ZM25.8802 40.8496H22.3243V44.286H25.8802V40.8496ZM55.6758 88.6314H59.2402V85.2057H55.6758V88.6314ZM63.1066 73.8815H66.5668V70.358H63.1066V73.8815Z" fill="black"/>
<path id="Vector_2" d="M0 25.9298V0H25.9674V25.9298H0ZM3.826 22.1111H22.1436V3.81863H3.826V22.1111Z" fill="black"/>
<path id="Vector_3" d="M25.9864 81.3911V107.323H0.0168457V81.3911H25.9843H25.9864ZM22.1477 103.506V85.2161H3.83008V103.506H22.1477Z" fill="black"/>
<path id="Vector_4" d="M81.5028 25.9298V0H107.47V25.9298H81.5028ZM103.651 22.1239V3.8335H85.3309V22.1239H103.651Z" fill="black"/>
<path id="Vector_5" d="M107.477 37.0844H103.704V33.4208H100.005V29.6064H103.778V33.2637H107.477V37.0823V37.0844Z" fill="black"/>
<path id="Vector_6" d="M33.4109 25.9447H29.6509V18.5835H33.4109V25.9447Z" fill="black"/>
<path id="Vector_7" d="M3.77707 48.0664V51.8171H0.0106201V48.0664H3.77707Z" fill="black"/>
<path id="Vector_8" d="M107.481 51.8298H103.727V48.0728H107.481V51.8298Z" fill="black"/>
<path id="Vector_9" d="M3.71741 59.2443V55.4937H7.49662V59.2443H3.71741Z" fill="black"/>
<path id="Vector_10" d="M107.474 66.5818H103.714V62.9331H107.474V66.5818Z" fill="black"/>
<path id="Vector_11" d="M66.6709 107.325H63.0172V103.57H66.6709V107.325Z" fill="black"/>
<path id="Vector_12" d="M85.2842 81.396V85.1445H81.505V81.396H85.2842Z" fill="black"/>
<path id="Vector_13" d="M7.45215 7.42285H18.6515V18.6048H7.45215V7.42285Z" fill="black"/>
<path id="Vector_14" d="M18.6407 99.8987H7.44128V88.7168H18.6407V99.8987Z" fill="black"/>
<path id="Vector_15" d="M100.052 7.4375V18.6194H88.855V7.4375H100.052Z" fill="black"/>
</g>
</g>
</svg>
