<svg width="16" height="16" viewBox="0 0 16 16" fill="none" xmlns="http://www.w3.org/2000/svg">
<path d="M7.99996 3.99984C10.5266 3.99984 12.78 5.41984 13.88 7.6665C12.78 9.91317 10.5266 11.3332 7.99996 11.3332C5.47329 11.3332 3.21996 9.91317 2.11996 7.6665C3.21996 5.41984 5.47329 3.99984 7.99996 3.99984ZM7.99996 2.6665C4.66663 2.6665 1.81996 4.73984 0.666626 7.6665C1.81996 10.5932 4.66663 12.6665 7.99996 12.6665C11.3333 12.6665 14.18 10.5932 15.3333 7.6665C14.18 4.73984 11.3333 2.6665 7.99996 2.6665ZM7.99996 5.99984C8.91996 5.99984 9.66663 6.7465 9.66663 7.6665C9.66663 8.5865 8.91996 9.33317 7.99996 9.33317C7.07996 9.33317 6.33329 8.5865 6.33329 7.6665C6.33329 6.7465 7.07996 5.99984 7.99996 5.99984ZM7.99996 4.6665C6.34663 4.6665 4.99996 6.01317 4.99996 7.6665C4.99996 9.31984 6.34663 10.6665 7.99996 10.6665C9.65329 10.6665 11 9.31984 11 7.6665C11 6.01317 9.65329 4.6665 7.99996 4.6665Z" fill="#151628"/>
</svg>
